<svg width="852" height="160" viewBox="0 0 852 160" fill="none" xmlns="http://www.w3.org/2000/svg">
<path d="M20.8899 67.4725H62.6697C74.5439 67.4725 83.0465 65.4212 88.1773 61.3187C93.4548 57.0696 96.0935 50.7692 96.0935 42.4176C96.0935 36.8498 95.2139 32.4542 93.4548 29.2308C91.6956 26.0073 89.2768 23.5165 86.1983 21.7582C83.1198 20 79.5282 18.9011 75.4235 18.4615C71.4654 17.8755 67.2141 17.5824 62.6697 17.5824H20.8899V67.4725ZM0 0H56.9524C60.3242 0 63.9157 0.0732591 67.7272 0.219777C71.6853 0.219777 75.5701 0.439559 79.3816 0.879123C83.1931 1.17217 86.7114 1.68499 89.9365 2.41759C93.3082 3.15019 96.1668 4.24909 98.5123 5.71429C103.643 8.79121 107.968 13.0403 111.486 18.4615C115.151 23.8828 116.983 30.5494 116.983 38.4615C116.983 46.8132 114.931 54.0659 110.826 60.2198C106.868 66.2271 101.151 70.696 93.6747 73.6264V74.0659C103.35 76.1172 110.753 80.5128 115.884 87.2527C121.015 93.9927 123.58 102.198 123.58 111.868C123.58 117.582 122.554 123.15 120.502 128.571C118.449 133.993 115.371 138.828 111.266 143.077C107.308 147.179 102.324 150.549 96.3134 153.187C90.4496 155.678 83.6329 156.923 75.8633 156.923H0V0ZM20.8899 139.341H73.2246C82.4601 139.341 89.6433 136.85 94.7741 131.868C100.052 126.886 102.69 120 102.69 111.209C102.69 106.081 101.737 101.832 99.8317 98.4615C97.926 95.0916 95.3605 92.4542 92.1354 90.5494C89.0569 88.4982 85.4653 87.1062 81.3606 86.3736C77.256 85.4945 73.0047 85.0549 68.6068 85.0549H20.8899V139.341Z" fill="white"/>
<path d="M226.396 89.2308C226.103 84.8352 225.077 80.6593 223.317 76.7033C221.705 72.7473 219.433 69.3773 216.501 66.5934C213.715 63.663 210.344 61.3919 206.386 59.7802C202.574 58.022 198.323 57.1429 193.632 57.1429C188.794 57.1429 184.396 58.022 180.438 59.7802C176.627 61.3919 173.328 63.663 170.543 66.5934C167.758 69.5238 165.559 72.967 163.946 76.9231C162.334 80.7326 161.381 84.8352 161.088 89.2308H226.396ZM244.427 120.879C241.935 133.626 236.438 143.223 227.935 149.67C219.433 156.117 208.731 159.341 195.831 159.341C186.742 159.341 178.826 157.875 172.082 154.945C165.485 152.015 159.915 147.912 155.37 142.637C150.826 137.363 147.381 131.062 145.035 123.736C142.836 116.41 141.59 108.425 141.297 99.7802C141.297 91.1355 142.616 83.2234 145.255 76.044C147.894 68.8645 151.559 62.6374 156.25 57.3626C161.088 52.0879 166.731 47.9853 173.182 45.055C179.778 42.1245 186.962 40.6593 194.731 40.6593C204.846 40.6593 213.202 42.7839 219.799 47.033C226.543 51.1355 231.893 56.4103 235.851 62.8571C239.956 69.304 242.741 76.337 244.207 83.956C245.82 91.5751 246.48 98.8278 246.186 105.714H161.088C160.941 110.696 161.527 115.458 162.847 120C164.166 124.396 166.292 128.352 169.224 131.868C172.156 135.238 175.894 137.949 180.438 140C184.983 142.051 190.333 143.077 196.49 143.077C204.407 143.077 210.857 141.245 215.841 137.582C220.972 133.919 224.344 128.352 225.956 120.879H244.427Z" fill="white"/>
<path d="M253.247 0H380.345V23.7363H330.43V156.923H302.943V23.7363H253.247V0Z" fill="white"/>
<path d="M468.339 131.648C468.339 134.725 468.706 136.923 469.439 138.242C470.318 139.56 471.931 140.22 474.276 140.22C475.009 140.22 475.889 140.22 476.915 140.22C477.941 140.22 479.114 140.073 480.433 139.78V157.143C479.554 157.436 478.381 157.729 476.915 158.022C475.596 158.462 474.203 158.828 472.737 159.121C471.271 159.414 469.805 159.634 468.339 159.78C466.873 159.927 465.627 160 464.601 160C459.47 160 455.219 158.974 451.847 156.923C448.475 154.872 446.276 151.282 445.25 146.154C440.266 150.989 434.109 154.505 426.779 156.703C419.596 158.901 412.633 160 405.889 160C400.758 160 395.847 159.267 391.156 157.802C386.465 156.484 382.287 154.505 378.622 151.868C375.104 149.084 372.246 145.641 370.047 141.538C367.994 137.289 366.968 132.381 366.968 126.813C366.968 119.78 368.214 114.066 370.706 109.67C373.345 105.275 376.717 101.831 380.821 99.3407C385.073 96.8498 389.764 95.0916 394.895 94.0659C400.172 92.8938 405.449 92.0147 410.727 91.4286C415.271 90.5495 419.596 89.9634 423.701 89.6703C427.805 89.2308 431.397 88.5714 434.475 87.6923C437.701 86.8132 440.193 85.4945 441.952 83.7363C443.858 81.8315 444.81 79.0476 444.81 75.3846C444.81 72.1612 444.004 69.5238 442.392 67.4725C440.926 65.4212 439.02 63.8828 436.674 62.8571C434.475 61.685 431.983 60.9524 429.198 60.6593C426.413 60.2198 423.774 60 421.282 60C414.245 60 408.455 61.4652 403.91 64.3956C399.366 67.326 396.8 71.8681 396.214 78.022H371.146C371.586 70.696 373.345 64.6154 376.423 59.7802C379.502 54.9451 383.387 51.0623 388.078 48.1319C392.915 45.2015 398.34 43.1502 404.35 41.978C410.36 40.8059 416.517 40.2198 422.821 40.2198C428.392 40.2198 433.889 40.8059 439.313 41.978C444.737 43.1502 449.575 45.0549 453.826 47.6923C458.224 50.3297 461.742 53.7729 464.381 58.022C467.02 62.1245 468.339 67.1795 468.339 73.1868V131.648ZM443.271 100C439.46 102.491 434.769 104.029 429.198 104.615C423.627 105.055 418.057 105.788 412.486 106.813C409.847 107.253 407.282 107.912 404.79 108.791C402.298 109.524 400.099 110.623 398.193 112.088C396.287 113.407 394.748 115.238 393.575 117.582C392.549 119.78 392.036 122.491 392.036 125.714C392.036 128.498 392.842 130.842 394.455 132.747C396.067 134.652 397.973 136.19 400.172 137.363C402.518 138.388 405.01 139.121 407.648 139.56C410.434 140 412.926 140.22 415.125 140.22C417.91 140.22 420.915 139.853 424.14 139.121C427.366 138.388 430.371 137.143 433.156 135.385C436.088 133.626 438.507 131.429 440.413 128.791C442.318 126.007 443.271 122.637 443.271 118.681V100Z" fill="white"/>
<path d="M495.972 0H521.04V156.923H495.972V0Z" fill="white"/>
<path d="M626.415 90.1099C626.122 86.1538 625.242 82.3443 623.776 78.6813C622.457 75.0183 620.551 71.8681 618.059 69.2308C615.714 66.4469 612.782 64.2491 609.263 62.6374C605.892 60.8791 602.08 60 597.829 60C593.431 60 589.4 60.8059 585.735 62.4176C582.216 63.8828 579.138 66.0073 576.499 68.7912C574.007 71.4286 571.955 74.5788 570.342 78.2418C568.876 81.9048 568.07 85.8608 567.923 90.1099H626.415ZM567.923 106.593C567.923 110.989 568.51 115.238 569.682 119.341C571.002 123.443 572.908 127.033 575.4 130.11C577.892 133.187 581.044 135.678 584.855 137.582C588.667 139.341 593.211 140.22 598.489 140.22C605.818 140.22 611.682 138.681 616.08 135.604C620.624 132.381 623.996 127.619 626.195 121.319H649.944C648.624 127.473 646.352 132.967 643.127 137.802C639.902 142.637 636.017 146.74 631.473 150.11C626.928 153.333 621.797 155.751 616.08 157.363C610.509 159.121 604.646 160 598.489 160C589.546 160 581.63 158.535 574.74 155.604C567.85 152.674 561.986 148.571 557.148 143.297C552.457 138.022 548.866 131.722 546.374 124.396C544.028 117.07 542.855 109.011 542.855 100.22C542.855 92.1612 544.102 84.5421 546.594 77.3626C549.232 70.0366 552.897 63.663 557.588 58.2418C562.426 52.674 568.216 48.2784 574.96 45.055C581.703 41.8315 589.326 40.2198 597.829 40.2198C606.771 40.2198 614.761 42.1245 621.797 45.9341C628.98 49.5971 634.918 54.5055 639.609 60.6593C644.3 66.8132 647.671 73.9194 649.724 81.978C651.923 89.8901 652.509 98.0952 651.483 106.593H567.923Z" fill="white"/>
<path d="M670.54 43.2967H694.288V60L694.728 60.4396C698.54 54.1392 703.524 49.2308 709.681 45.7143C715.838 42.0513 722.655 40.2198 730.131 40.2198C742.592 40.2198 752.414 43.4432 759.597 49.8901C766.78 56.337 770.371 66.0073 770.371 78.9011V156.923H745.304V85.4945C745.01 76.5568 743.105 70.1099 739.586 66.1538C736.068 62.0513 730.571 60 723.094 60C718.843 60 715.032 60.8059 711.66 62.4176C708.288 63.8828 705.43 66.0073 703.084 68.7912C700.738 71.4286 698.906 74.5788 697.587 78.2418C696.267 81.9048 695.608 85.7875 695.608 89.8901V156.923H670.54V43.2967Z" fill="white"/>
<path d="M785.372 43.2967H804.283V9.23077H829.351V43.2967H852V61.978H829.351V122.637C829.351 125.275 829.424 127.546 829.571 129.451C829.864 131.355 830.377 132.967 831.11 134.286C831.99 135.604 833.236 136.63 834.848 137.363C836.461 137.949 838.66 138.242 841.445 138.242C843.204 138.242 844.964 138.242 846.723 138.242C848.482 138.095 850.241 137.802 852 137.363V156.703C849.215 156.996 846.503 157.289 843.864 157.582C841.225 157.875 838.513 158.022 835.728 158.022C829.131 158.022 823.78 157.436 819.676 156.264C815.718 154.945 812.566 153.114 810.22 150.769C808.021 148.278 806.482 145.201 805.602 141.538C804.87 137.875 804.43 133.7 804.283 129.011V61.978H785.372V43.2967Z" fill="white"/>
</svg>
