<svg width="1462" height="770" viewBox="0 0 1462 770" fill="none" xmlns="http://www.w3.org/2000/svg">
<path d="M325.89 372.473H367.67C379.544 372.473 388.046 370.421 393.177 366.319C398.455 362.07 401.094 355.769 401.094 347.418C401.094 341.85 400.214 337.454 398.455 334.231C396.696 331.007 394.277 328.516 391.198 326.758C388.12 325 384.528 323.901 380.424 323.462C376.465 322.875 372.214 322.582 367.67 322.582H325.89V372.473ZM305 305H361.952C365.324 305 368.916 305.073 372.727 305.22C376.685 305.22 380.57 305.44 384.382 305.879C388.193 306.172 391.711 306.685 394.936 307.418C398.308 308.15 401.167 309.249 403.512 310.714C408.643 313.791 412.968 318.04 416.486 323.462C420.151 328.883 421.983 335.549 421.983 343.462C421.983 351.813 419.931 359.066 415.826 365.22C411.868 371.227 406.151 375.696 398.675 378.626V379.066C408.35 381.117 415.753 385.513 420.884 392.253C426.015 398.993 428.58 407.198 428.58 416.868C428.58 422.582 427.554 428.15 425.502 433.571C423.449 438.993 420.371 443.828 416.266 448.077C412.308 452.179 407.324 455.549 401.313 458.187C395.45 460.678 388.633 461.923 380.863 461.923H305V305ZM325.89 444.341H378.225C387.46 444.341 394.643 441.85 399.774 436.868C405.052 431.886 407.69 425 407.69 416.209C407.69 411.081 406.737 406.832 404.832 403.462C402.926 400.092 400.361 397.454 397.135 395.549C394.057 393.498 390.465 392.106 386.361 391.374C382.256 390.495 378.005 390.055 373.607 390.055H325.89V444.341Z" fill="white"/>
<path d="M531.396 394.231C531.103 389.835 530.077 385.659 528.317 381.703C526.705 377.747 524.433 374.377 521.501 371.593C518.715 368.663 515.344 366.392 511.386 364.78C507.574 363.022 503.323 362.143 498.632 362.143C493.794 362.143 489.396 363.022 485.438 364.78C481.627 366.392 478.328 368.663 475.543 371.593C472.758 374.524 470.559 377.967 468.946 381.923C467.334 385.733 466.381 389.835 466.088 394.231H531.396ZM549.427 425.879C546.935 438.626 541.438 448.223 532.935 454.67C524.433 461.117 513.731 464.341 500.831 464.341C491.742 464.341 483.826 462.875 477.082 459.945C470.485 457.015 464.915 452.912 460.37 447.637C455.826 442.363 452.381 436.062 450.035 428.736C447.836 421.41 446.59 413.425 446.297 404.78C446.297 396.136 447.616 388.223 450.255 381.044C452.894 373.864 456.559 367.637 461.25 362.363C466.088 357.088 471.731 352.985 478.182 350.055C484.778 347.125 491.962 345.659 499.731 345.659C509.846 345.659 518.202 347.784 524.799 352.033C531.543 356.136 536.893 361.41 540.851 367.857C544.956 374.304 547.741 381.337 549.207 388.956C550.82 396.575 551.48 403.828 551.186 410.714H466.088C465.941 415.696 466.527 420.458 467.847 425C469.166 429.396 471.292 433.352 474.224 436.868C477.156 440.238 480.894 442.949 485.438 445C489.983 447.051 495.333 448.077 501.49 448.077C509.407 448.077 515.857 446.245 520.841 442.582C525.972 438.919 529.344 433.352 530.956 425.879H549.427Z" fill="white"/>
<path d="M558.247 305H685.345V328.736H635.43V461.923H607.943V328.736H558.247V305Z" fill="white"/>
<path d="M773.339 436.648C773.339 439.725 773.706 441.923 774.439 443.242C775.318 444.56 776.931 445.22 779.276 445.22C780.009 445.22 780.889 445.22 781.915 445.22C782.941 445.22 784.114 445.073 785.433 444.78V462.143C784.554 462.436 783.381 462.729 781.915 463.022C780.596 463.462 779.203 463.828 777.737 464.121C776.271 464.414 774.805 464.634 773.339 464.78C771.873 464.927 770.627 465 769.601 465C764.47 465 760.219 463.974 756.847 461.923C753.475 459.872 751.276 456.282 750.25 451.154C745.266 455.989 739.109 459.505 731.779 461.703C724.596 463.901 717.633 465 710.889 465C705.758 465 700.847 464.267 696.156 462.802C691.465 461.484 687.287 459.505 683.622 456.868C680.104 454.084 677.246 450.641 675.047 446.538C672.994 442.289 671.968 437.381 671.968 431.813C671.968 424.78 673.214 419.066 675.706 414.67C678.345 410.275 681.717 406.831 685.821 404.341C690.073 401.85 694.764 400.092 699.895 399.066C705.172 397.894 710.449 397.015 715.727 396.429C720.271 395.549 724.596 394.963 728.701 394.67C732.805 394.231 736.397 393.571 739.475 392.692C742.701 391.813 745.193 390.495 746.952 388.736C748.858 386.832 749.81 384.048 749.81 380.385C749.81 377.161 749.004 374.524 747.392 372.473C745.926 370.421 744.02 368.883 741.674 367.857C739.475 366.685 736.983 365.952 734.198 365.659C731.413 365.22 728.774 365 726.282 365C719.245 365 713.455 366.465 708.91 369.396C704.366 372.326 701.8 376.868 701.214 383.022H676.146C676.586 375.696 678.345 369.615 681.423 364.78C684.502 359.945 688.387 356.062 693.078 353.132C697.915 350.201 703.34 348.15 709.35 346.978C715.36 345.806 721.517 345.22 727.821 345.22C733.392 345.22 738.889 345.806 744.313 346.978C749.737 348.15 754.575 350.055 758.826 352.692C763.224 355.33 766.742 358.773 769.381 363.022C772.02 367.125 773.339 372.179 773.339 378.187V436.648ZM748.271 405C744.46 407.491 739.769 409.029 734.198 409.615C728.627 410.055 723.057 410.788 717.486 411.813C714.847 412.253 712.282 412.912 709.79 413.791C707.298 414.524 705.099 415.623 703.193 417.088C701.287 418.407 699.748 420.238 698.575 422.582C697.549 424.78 697.036 427.491 697.036 430.714C697.036 433.498 697.842 435.842 699.455 437.747C701.067 439.652 702.973 441.19 705.172 442.363C707.518 443.388 710.01 444.121 712.648 444.56C715.434 445 717.926 445.22 720.125 445.22C722.91 445.22 725.915 444.853 729.14 444.121C732.366 443.388 735.371 442.143 738.156 440.385C741.088 438.626 743.507 436.429 745.413 433.791C747.318 431.007 748.271 427.637 748.271 423.681V405Z" fill="white"/>
<path d="M800.972 305H826.04V461.923H800.972V305Z" fill="white"/>
<path d="M931.415 395.11C931.122 391.154 930.242 387.344 928.776 383.681C927.457 380.018 925.551 376.868 923.059 374.231C920.714 371.447 917.782 369.249 914.263 367.637C910.892 365.879 907.08 365 902.829 365C898.431 365 894.4 365.806 890.735 367.418C887.216 368.883 884.138 371.007 881.499 373.791C879.007 376.429 876.955 379.579 875.342 383.242C873.876 386.905 873.07 390.861 872.923 395.11H931.415ZM872.923 411.593C872.923 415.989 873.51 420.238 874.682 424.341C876.002 428.443 877.908 432.033 880.4 435.11C882.892 438.187 886.044 440.678 889.855 442.582C893.667 444.341 898.211 445.22 903.489 445.22C910.818 445.22 916.682 443.681 921.08 440.604C925.624 437.381 928.996 432.619 931.195 426.319H954.944C953.624 432.473 951.352 437.967 948.127 442.802C944.902 447.637 941.017 451.74 936.473 455.11C931.928 458.333 926.797 460.751 921.08 462.363C915.509 464.121 909.646 465 903.489 465C894.546 465 886.63 463.535 879.74 460.604C872.85 457.674 866.986 453.571 862.148 448.297C857.457 443.022 853.866 436.722 851.374 429.396C849.028 422.07 847.855 414.011 847.855 405.22C847.855 397.161 849.102 389.542 851.594 382.363C854.232 375.037 857.897 368.663 862.588 363.242C867.426 357.674 873.216 353.278 879.96 350.055C886.703 346.832 894.326 345.22 902.829 345.22C911.771 345.22 919.761 347.125 926.797 350.934C933.98 354.597 939.918 359.505 944.609 365.659C949.3 371.813 952.671 378.919 954.724 386.978C956.923 394.89 957.509 403.095 956.483 411.593H872.923Z" fill="white"/>
<path d="M975.54 348.297H999.288V365L999.728 365.44C1003.54 359.139 1008.52 354.231 1014.68 350.714C1020.84 347.051 1027.65 345.22 1035.13 345.22C1047.59 345.22 1057.41 348.443 1064.6 354.89C1071.78 361.337 1075.37 371.007 1075.37 383.901V461.923H1050.3V390.495C1050.01 381.557 1048.1 375.11 1044.59 371.154C1041.07 367.051 1035.57 365 1028.09 365C1023.84 365 1020.03 365.806 1016.66 367.418C1013.29 368.883 1010.43 371.007 1008.08 373.791C1005.74 376.429 1003.91 379.579 1002.59 383.242C1001.27 386.905 1000.61 390.788 1000.61 394.89V461.923H975.54V348.297Z" fill="white"/>
<path d="M1090.37 348.297H1109.28V314.231H1134.35V348.297H1157V366.978H1134.35V427.637C1134.35 430.275 1134.42 432.546 1134.57 434.451C1134.86 436.355 1135.38 437.967 1136.11 439.286C1136.99 440.604 1138.24 441.63 1139.85 442.363C1141.46 442.949 1143.66 443.242 1146.45 443.242C1148.2 443.242 1149.96 443.242 1151.72 443.242C1153.48 443.095 1155.24 442.802 1157 442.363V461.703C1154.21 461.996 1151.5 462.289 1148.86 462.582C1146.23 462.875 1143.51 463.022 1140.73 463.022C1134.13 463.022 1128.78 462.436 1124.68 461.264C1120.72 459.945 1117.57 458.114 1115.22 455.769C1113.02 453.278 1111.48 450.201 1110.6 446.538C1109.87 442.875 1109.43 438.7 1109.28 434.011V366.978H1090.37V348.297Z" fill="white"/>
</svg>
