<svg width="1920" height="1080" viewBox="0 0 1920 1080" fill="none" xmlns="http://www.w3.org/2000/svg">
<rect width="1920" height="1080" fill="black"/>
<path d="M554.89 527.473H596.67C608.544 527.473 617.046 525.421 622.177 521.319C627.455 517.07 630.094 510.769 630.094 502.418C630.094 496.85 629.214 492.454 627.455 489.231C625.696 486.007 623.277 483.516 620.198 481.758C617.12 480 613.528 478.901 609.424 478.462C605.465 477.875 601.214 477.582 596.67 477.582H554.89V527.473ZM534 460H590.952C594.324 460 597.916 460.073 601.727 460.22C605.685 460.22 609.57 460.44 613.382 460.879C617.193 461.172 620.711 461.685 623.936 462.418C627.308 463.15 630.167 464.249 632.512 465.714C637.643 468.791 641.968 473.04 645.486 478.462C649.151 483.883 650.983 490.549 650.983 498.462C650.983 506.813 648.931 514.066 644.826 520.22C640.868 526.227 635.151 530.696 627.675 533.626V534.066C637.35 536.117 644.753 540.513 649.884 547.253C655.015 553.993 657.58 562.198 657.58 571.868C657.58 577.582 656.554 583.15 654.502 588.571C652.449 593.993 649.371 598.828 645.266 603.077C641.308 607.179 636.324 610.549 630.313 613.187C624.45 615.678 617.633 616.923 609.863 616.923H534V460ZM554.89 599.341H607.225C616.46 599.341 623.643 596.85 628.774 591.868C634.052 586.886 636.69 580 636.69 571.209C636.69 566.081 635.737 561.832 633.832 558.462C631.926 555.092 629.361 552.454 626.135 550.549C623.057 548.498 619.465 547.106 615.361 546.374C611.256 545.495 607.005 545.055 602.607 545.055H554.89V599.341Z" fill="white"/>
<path d="M760.396 549.231C760.103 544.835 759.077 540.659 757.317 536.703C755.705 532.747 753.433 529.377 750.501 526.593C747.715 523.663 744.344 521.392 740.386 519.78C736.574 518.022 732.323 517.143 727.632 517.143C722.794 517.143 718.396 518.022 714.438 519.78C710.627 521.392 707.328 523.663 704.543 526.593C701.758 529.524 699.559 532.967 697.946 536.923C696.334 540.733 695.381 544.835 695.088 549.231H760.396ZM778.427 580.879C775.935 593.626 770.438 603.223 761.935 609.67C753.433 616.117 742.731 619.341 729.831 619.341C720.742 619.341 712.826 617.875 706.082 614.945C699.485 612.015 693.915 607.912 689.37 602.637C684.826 597.363 681.381 591.062 679.035 583.736C676.836 576.41 675.59 568.425 675.297 559.78C675.297 551.136 676.616 543.223 679.255 536.044C681.894 528.864 685.559 522.637 690.25 517.363C695.088 512.088 700.731 507.985 707.182 505.055C713.778 502.125 720.962 500.659 728.731 500.659C738.846 500.659 747.202 502.784 753.799 507.033C760.543 511.136 765.893 516.41 769.851 522.857C773.956 529.304 776.741 536.337 778.207 543.956C779.82 551.575 780.48 558.828 780.186 565.714H695.088C694.941 570.696 695.527 575.458 696.847 580C698.166 584.396 700.292 588.352 703.224 591.868C706.156 595.238 709.894 597.949 714.438 600C718.983 602.051 724.333 603.077 730.49 603.077C738.407 603.077 744.857 601.245 749.841 597.582C754.972 593.919 758.344 588.352 759.956 580.879H778.427Z" fill="white"/>
<path d="M787.247 460H914.345V483.736H864.43V616.923H836.943V483.736H787.247V460Z" fill="white"/>
<path d="M1002.34 591.648C1002.34 594.725 1002.71 596.923 1003.44 598.242C1004.32 599.56 1005.93 600.22 1008.28 600.22C1009.01 600.22 1009.89 600.22 1010.91 600.22C1011.94 600.22 1013.11 600.073 1014.43 599.78V617.143C1013.55 617.436 1012.38 617.729 1010.91 618.022C1009.6 618.462 1008.2 618.828 1006.74 619.121C1005.27 619.414 1003.8 619.634 1002.34 619.78C1000.87 619.927 999.627 620 998.601 620C993.47 620 989.219 618.974 985.847 616.923C982.475 614.872 980.276 611.282 979.25 606.154C974.266 610.989 968.109 614.505 960.779 616.703C953.596 618.901 946.633 620 939.889 620C934.758 620 929.847 619.267 925.156 617.802C920.465 616.484 916.287 614.505 912.622 611.868C909.104 609.084 906.246 605.641 904.047 601.538C901.994 597.289 900.968 592.381 900.968 586.813C900.968 579.78 902.214 574.066 904.706 569.67C907.345 565.275 910.717 561.831 914.821 559.341C919.073 556.85 923.764 555.092 928.895 554.066C934.172 552.894 939.449 552.015 944.727 551.429C949.271 550.549 953.596 549.963 957.701 549.67C961.805 549.231 965.397 548.571 968.475 547.692C971.701 546.813 974.193 545.495 975.952 543.736C977.858 541.832 978.81 539.048 978.81 535.385C978.81 532.161 978.004 529.524 976.392 527.473C974.926 525.421 973.02 523.883 970.674 522.857C968.475 521.685 965.983 520.952 963.198 520.659C960.413 520.22 957.774 520 955.282 520C948.245 520 942.455 521.465 937.91 524.396C933.366 527.326 930.8 531.868 930.214 538.022H905.146C905.586 530.696 907.345 524.615 910.423 519.78C913.502 514.945 917.387 511.062 922.078 508.132C926.915 505.201 932.34 503.15 938.35 501.978C944.36 500.806 950.517 500.22 956.821 500.22C962.392 500.22 967.889 500.806 973.313 501.978C978.737 503.15 983.575 505.055 987.826 507.692C992.224 510.33 995.742 513.773 998.381 518.022C1001.02 522.125 1002.34 527.179 1002.34 533.187V591.648ZM977.271 560C973.46 562.491 968.769 564.029 963.198 564.615C957.627 565.055 952.057 565.788 946.486 566.813C943.847 567.253 941.282 567.912 938.79 568.791C936.298 569.524 934.099 570.623 932.193 572.088C930.287 573.407 928.748 575.238 927.575 577.582C926.549 579.78 926.036 582.491 926.036 585.714C926.036 588.498 926.842 590.842 928.455 592.747C930.067 594.652 931.973 596.19 934.172 597.363C936.518 598.388 939.01 599.121 941.648 599.56C944.434 600 946.926 600.22 949.125 600.22C951.91 600.22 954.915 599.853 958.14 599.121C961.366 598.388 964.371 597.143 967.156 595.385C970.088 593.626 972.507 591.429 974.413 588.791C976.318 586.007 977.271 582.637 977.271 578.681V560Z" fill="white"/>
<path d="M1029.97 460H1055.04V616.923H1029.97V460Z" fill="white"/>
<path d="M1160.42 550.11C1160.12 546.154 1159.24 542.344 1157.78 538.681C1156.46 535.018 1154.55 531.868 1152.06 529.231C1149.71 526.447 1146.78 524.249 1143.26 522.637C1139.89 520.879 1136.08 520 1131.83 520C1127.43 520 1123.4 520.806 1119.73 522.418C1116.22 523.883 1113.14 526.007 1110.5 528.791C1108.01 531.429 1105.95 534.579 1104.34 538.242C1102.88 541.905 1102.07 545.861 1101.92 550.11H1160.42ZM1101.92 566.593C1101.92 570.989 1102.51 575.238 1103.68 579.341C1105 583.443 1106.91 587.033 1109.4 590.11C1111.89 593.187 1115.04 595.678 1118.86 597.582C1122.67 599.341 1127.21 600.22 1132.49 600.22C1139.82 600.22 1145.68 598.681 1150.08 595.604C1154.62 592.381 1158 587.619 1160.2 581.319H1183.94C1182.62 587.473 1180.35 592.967 1177.13 597.802C1173.9 602.637 1170.02 606.74 1165.47 610.11C1160.93 613.333 1155.8 615.751 1150.08 617.363C1144.51 619.121 1138.65 620 1132.49 620C1123.55 620 1115.63 618.535 1108.74 615.604C1101.85 612.674 1095.99 608.571 1091.15 603.297C1086.46 598.022 1082.87 591.722 1080.37 584.396C1078.03 577.07 1076.86 569.011 1076.86 560.22C1076.86 552.161 1078.1 544.542 1080.59 537.363C1083.23 530.037 1086.9 523.663 1091.59 518.242C1096.43 512.674 1102.22 508.278 1108.96 505.055C1115.7 501.832 1123.33 500.22 1131.83 500.22C1140.77 500.22 1148.76 502.125 1155.8 505.934C1162.98 509.597 1168.92 514.505 1173.61 520.659C1178.3 526.813 1181.67 533.919 1183.72 541.978C1185.92 549.89 1186.51 558.095 1185.48 566.593H1101.92Z" fill="white"/>
<path d="M1204.54 503.297H1228.29V520L1228.73 520.44C1232.54 514.139 1237.52 509.231 1243.68 505.714C1249.84 502.051 1256.65 500.22 1264.13 500.22C1276.59 500.22 1286.41 503.443 1293.6 509.89C1300.78 516.337 1304.37 526.007 1304.37 538.901V616.923H1279.3V545.495C1279.01 536.557 1277.1 530.11 1273.59 526.154C1270.07 522.051 1264.57 520 1257.09 520C1252.84 520 1249.03 520.806 1245.66 522.418C1242.29 523.883 1239.43 526.007 1237.08 528.791C1234.74 531.429 1232.91 534.579 1231.59 538.242C1230.27 541.905 1229.61 545.788 1229.61 549.89V616.923H1204.54V503.297Z" fill="white"/>
<path d="M1319.37 503.297H1338.28V469.231H1363.35V503.297H1386V521.978H1363.35V582.637C1363.35 585.275 1363.42 587.546 1363.57 589.451C1363.86 591.355 1364.38 592.967 1365.11 594.286C1365.99 595.604 1367.24 596.63 1368.85 597.363C1370.46 597.949 1372.66 598.242 1375.45 598.242C1377.2 598.242 1378.96 598.242 1380.72 598.242C1382.48 598.095 1384.24 597.802 1386 597.363V616.703C1383.21 616.996 1380.5 617.289 1377.86 617.582C1375.23 617.875 1372.51 618.022 1369.73 618.022C1363.13 618.022 1357.78 617.436 1353.68 616.264C1349.72 614.945 1346.57 613.114 1344.22 610.769C1342.02 608.278 1340.48 605.201 1339.6 601.538C1338.87 597.875 1338.43 593.7 1338.28 589.011V521.978H1319.37V503.297Z" fill="white"/>
</svg>
